# xmcd
# Copyright (C) 1995-1998 Ti Kan
#
# Track frame offsets:
#       150
#       15203
#       29356
#       42987
#       59826
#       76412
#       95209
#       112010
#       127410
#       141402
#       153697
#       168744
#
# Disc length: 2420 seconds
#
# Revision: 0
# Processed by: cddbd v1.5.2PL0 Copyright (c) Steve Scherf et al.
# Submitted via: CD-Transfer v1.0
#
DISCID=b409720c
DTITLE=Frank Galan - 
DYEAR=1900
DGENRE=
TTITLE0=Du Bist So Schön, Wie Du Dich Fühlst
TTITLE1=Rote Rosen, Rote Lippen, Roter Wein
TTITLE2=Ich Kenn All Deine Heimlichen Träume
TTITLE3=My Blue Blue Memories
TTITLE4=Ich Tanz Mit Dir In Den Himmel Hinein
TTITLE5=Wenn Ein Schiff Vorüberfährt
TTITLE6=In Einer Sommernacht In Santa Margaritha
TTITLE7=Schenk Mir Deine Liebe
TTITLE8=Zwei Weiße Gitarren
TTITLE9=Denn Am Abend Kommt Die Sehnsucht
TTITLE10=Schwarze Madonna
TTITLE11=Ich Kann Dich Nie Mehr Vergessen
EXTD=
EXTT0=
EXTT1=
EXTT2=
EXTT3=
EXTT4=
EXTT5=
EXTT6=
EXTT7=
EXTT8=
EXTT9=
EXTT10=
EXTT11=
PLAYORDER=
